<svg xmlns="http://www.w3.org/2000/svg" viewBox="0 0 600 375" role="img" aria-label="Внедрение методов по проектам">
<title>Внедрение методов по проектам</title><style>text{font-family:monospace;font-size:12px;fill:#b7f774} .muted{fill:#6c9b4d} .grid{stroke:#31552d;stroke-width:1} .bar{fill:#79d34b} .hot{fill:#d8ff77} .blocked{fill:#ffb347}</style><text x="173" y="20">SERPlux</text><text x="278" y="20">dv-hub</text><text x="383" y="20">dotfiles</text><text x="488" y="20">vault</text><text class="muted" x="0" y="52">context-as-docs</text><rect x="165" y="35" width="88" height="20" rx="2" fill="#79d34b"/><text x="200" y="50" fill="#061006">✅</text><rect x="270" y="35" width="88" height="20" rx="2" fill="#d8ff77"/><text x="305" y="50" fill="#061006">🟡</text><rect x="375" y="35" width="88" height="20" rx="2" fill="#79d34b"/><text x="410" y="50" fill="#061006">✅</text><rect x="480" y="35" width="88" height="20" rx="2" fill="#79d34b"/><text x="515" y="50" fill="#061006">✅</text><text class="muted" x="0" y="77">distill-pattern</text><rect x="165" y="60" width="88" height="20" rx="2" fill="#79d34b"/><text x="200" y="75" fill="#061006">✅</text><rect x="270" y="60" width="88" height="20" rx="2" fill="#79d34b"/><text x="305" y="75" fill="#061006">✅</text><rect x="375" y="60" width="88" height="20" rx="2" fill="#79d34b"/><text x="410" y="75" fill="#061006">✅</text><rect x="480" y="60" width="88" height="20" rx="2" fill="#79d34b"/><text x="515" y="75" fill="#061006">✅</text><text class="muted" x="0" y="102">memory-management</text><rect x="165" y="85" width="88" height="20" rx="2" fill="#d8ff77"/><text x="200" y="100" fill="#061006">🟡</text><rect x="270" y="85" width="88" height="20" rx="2" fill="#d8ff77"/><text x="305" y="100" fill="#061006">🟡</text><rect x="375" y="85" width="88" height="20" rx="2" fill="#79d34b"/><text x="410" y="100" fill="#061006">✅</text><rect x="480" y="85" width="88" height="20" rx="2" fill="#79d34b"/><text x="515" y="100" fill="#061006">✅</text><text class="muted" x="0" y="127">model-routing</text><rect x="165" y="110" width="88" height="20" rx="2" fill="#79d34b"/><text x="200" y="125" fill="#061006">✅</text><rect x="270" y="110" width="88" height="20" rx="2" fill="#79d34b"/><text x="305" y="125" fill="#061006">✅</text><rect x="375" y="110" width="88" height="20" rx="2" fill="#31552d"/><text x="410" y="125" fill="#061006">➖</text><rect x="480" y="110" width="88" height="20" rx="2" fill="#31552d"/><text x="515" y="125" fill="#061006">➖</text><text class="muted" x="0" y="152">closed-loop</text><rect x="165" y="135" width="88" height="20" rx="2" fill="#79d34b"/><text x="200" y="150" fill="#061006">✅</text><rect x="270" y="135" width="88" height="20" rx="2" fill="#31552d"/><text x="305" y="150" fill="#061006">❌</text><rect x="375" y="135" width="88" height="20" rx="2" fill="#79d34b"/><text x="410" y="150" fill="#061006">✅</text><rect x="480" y="135" width="88" height="20" rx="2" fill="#31552d"/><text x="515" y="150" fill="#061006">❌</text><text class="muted" x="0" y="177">verifier-pattern</text><rect x="165" y="160" width="88" height="20" rx="2" fill="#79d34b"/><text x="200" y="175" fill="#061006">✅</text><rect x="270" y="160" width="88" height="20" rx="2" fill="#31552d"/><text x="305" y="175" fill="#061006">❌</text><rect x="375" y="160" width="88" height="20" rx="2" fill="#79d34b"/><text x="410" y="175" fill="#061006">✅</text><rect x="480" y="160" width="88" height="20" rx="2" fill="#31552d"/><text x="515" y="175" fill="#061006">❌</text><text class="muted" x="0" y="202">multi-agent-pipeline</text><rect x="165" y="185" width="88" height="20" rx="2" fill="#79d34b"/><text x="200" y="200" fill="#061006">✅</text><rect x="270" y="185" width="88" height="20" rx="2" fill="#31552d"/><text x="305" y="200" fill="#061006">❌</text><rect x="375" y="185" width="88" height="20" rx="2" fill="#79d34b"/><text x="410" y="200" fill="#061006">✅</text><rect x="480" y="185" width="88" height="20" rx="2" fill="#31552d"/><text x="515" y="200" fill="#061006">❌</text><text class="muted" x="0" y="227">tool-integration-patte</text><rect x="165" y="210" width="88" height="20" rx="2" fill="#31552d"/><text x="200" y="225" fill="#061006">➖</text><rect x="270" y="210" width="88" height="20" rx="2" fill="#31552d"/><text x="305" y="225" fill="#061006">➖</text><rect x="375" y="210" width="88" height="20" rx="2" fill="#31552d"/><text x="410" y="225" fill="#061006">➖</text><rect x="480" y="210" width="88" height="20" rx="2" fill="#79d34b"/><text x="515" y="225" fill="#061006">✅ stable</text><text class="muted" x="0" y="252">capability-routing</text><rect x="165" y="235" width="88" height="20" rx="2" fill="#31552d"/><text x="200" y="250" fill="#061006">[проверить</text><rect x="270" y="235" width="88" height="20" rx="2" fill="#31552d"/><text x="305" y="250" fill="#061006">[проверить</text><rect x="375" y="235" width="88" height="20" rx="2" fill="#31552d"/><text x="410" y="250" fill="#061006">[проверить</text><rect x="480" y="235" width="88" height="20" rx="2" fill="#79d34b"/><text x="515" y="250" fill="#061006">✅ stable</text><text class="muted" x="0" y="277">git-worktree-isolation</text><rect x="165" y="260" width="88" height="20" rx="2" fill="#31552d"/><text x="200" y="275" fill="#061006">➖</text><rect x="270" y="260" width="88" height="20" rx="2" fill="#31552d"/><text x="305" y="275" fill="#061006">➖</text><rect x="375" y="260" width="88" height="20" rx="2" fill="#31552d"/><text x="410" y="275" fill="#061006">➖</text><rect x="480" y="260" width="88" height="20" rx="2" fill="#79d34b"/><text x="515" y="275" fill="#061006">✅ stable</text><text class="muted" x="0" y="302">parallel-sessions</text><rect x="165" y="285" width="88" height="20" rx="2" fill="#31552d"/><text x="200" y="300" fill="#061006">➖</text><rect x="270" y="285" width="88" height="20" rx="2" fill="#31552d"/><text x="305" y="300" fill="#061006">➖</text><rect x="375" y="285" width="88" height="20" rx="2" fill="#31552d"/><text x="410" y="300" fill="#061006">➖</text><rect x="480" y="285" width="88" height="20" rx="2" fill="#31552d"/><text x="515" y="300" fill="#061006">proposed</text><text class="muted" x="0" y="327">peer-comms</text><rect x="165" y="310" width="88" height="20" rx="2" fill="#31552d"/><text x="200" y="325" fill="#061006">➖</text><rect x="270" y="310" width="88" height="20" rx="2" fill="#31552d"/><text x="305" y="325" fill="#061006">➖</text><rect x="375" y="310" width="88" height="20" rx="2" fill="#31552d"/><text x="410" y="325" fill="#061006">➖</text><rect x="480" y="310" width="88" height="20" rx="2" fill="#31552d"/><text x="515" y="325" fill="#061006">proposed</text><text class="muted" x="0" y="352">promo-provider-protoco</text><rect x="165" y="335" width="88" height="20" rx="2" fill="#31552d"/><text x="200" y="350" fill="#061006">➖</text><rect x="270" y="335" width="88" height="20" rx="2" fill="#31552d"/><text x="305" y="350" fill="#061006">➖</text><rect x="375" y="335" width="88" height="20" rx="2" fill="#31552d"/><text x="410" y="350" fill="#061006">➖</text><rect x="480" y="335" width="88" height="20" rx="2" fill="#d8ff77"/><text x="515" y="350" fill="#061006">🟡</text></svg>